<?xml version="1.0" encoding="utf-8"?>
<!-- Generator: Adobe Illustrator 16.0.0, SVG Export Plug-In . SVG Version: 6.00 Build 0)  -->
<!DOCTYPE svg PUBLIC "-//W3C//DTD SVG 1.1//EN" "http://www.w3.org/Graphics/SVG/1.1/DTD/svg11.dtd">
<svg version="1.1" id="Layer_1" xmlns="http://www.w3.org/2000/svg" xmlns:xlink="http://www.w3.org/1999/xlink" x="0px" y="0px"
	 width="800px" height="216.563px" viewBox="0 104.906 800 216.563" enable-background="new 0 104.906 800 216.563"
	 xml:space="preserve">
<g>
	<g>
		<path fill="#9CA3AF" d="M308.468,261.222v-79.815h10.262l48.776,64.233v-64.233h9.755v79.815h-10.262l-48.775-64.865v64.865
			H308.468z M456.696,258.054c-6.462,2.408-13.428,3.674-20.777,3.674c-28.886,0-43.328-13.81-43.328-41.554
			c0-26.226,13.936-39.401,41.807-39.401c7.982,0,15.457,1.14,22.298,3.294v8.868c-6.841-2.66-13.936-3.927-21.157-3.927
			c-21.791,0-32.686,10.388-32.686,30.912c0,22.171,10.769,33.193,32.178,33.193c3.422,0,7.223-0.507,11.403-1.394v-26.731h10.262
			V258.054z M473.167,230.436v-49.03h10.262v49.03c0,15.329,7.602,23.058,22.93,23.058c15.204,0,22.933-7.729,22.933-23.058v-49.03
			h10.262v49.03c0,20.904-11.023,31.419-33.194,31.419C484.188,261.855,473.167,251.34,473.167,230.436z M568.185,181.406v71.454
			h41.807v8.362h-52.069v-79.815H568.185z M624.815,261.222h-10.77l39.656-90.331l39.653,90.331h-11.403l-10.262-25.084H645.34
			l2.787-8.362h20.144l-14.949-36.106L624.815,261.222z M704.379,261.222v-79.815h34.078c15.202,0,22.805,6.334,22.805,19.13
			c0,10.389-7.475,18.117-22.298,23.058l27.364,37.627h-13.556l-25.338-35.854v-6.714c15.205-2.407,22.933-8.235,22.933-17.61
			c0-7.348-4.182-11.022-12.669-11.022h-22.805v71.2H704.379z"/>
	</g>
	<path fill="#9CA3AF" d="M117.671,160.122l81.715-29.139l83.87,28.632l-13.556,108.067l-70.314,38.895l-69.173-38.387
		L117.671,160.122z"/>
	<path fill="#9CA3AF" d="M283.257,159.616l-83.87-28.632v175.594l70.314-38.895L283.257,159.616z"/>
	<path fill="#FFFFFF" d="M199.514,151.507l-50.93,113.262l19.004-0.38l10.262-25.591h45.482l11.149,25.844l18.117,0.38
		L199.514,151.507L199.514,151.507z M199.641,187.868l17.23,35.98h-32.307L199.641,187.868z"/>
</g>
</svg>
