<?xml version="1.0" encoding="utf-8"?>
<!-- Generator: Adobe Illustrator 16.0.0, SVG Export Plug-In . SVG Version: 6.00 Build 0)  -->
<!DOCTYPE svg PUBLIC "-//W3C//DTD SVG 1.1//EN" "http://www.w3.org/Graphics/SVG/1.1/DTD/svg11.dtd">
<svg version="1.1" id="Layer_1" xmlns="http://www.w3.org/2000/svg" xmlns:xlink="http://www.w3.org/1999/xlink" x="0px" y="0px"
	 width="186.879px" height="29.952px" viewBox="34.56 112.999 186.879 29.952"
	 enable-background="new 34.56 112.999 186.879 29.952" xml:space="preserve">
<g id="XMLID_1_">
	<polyline id="XMLID_3_" fill="#9CA3AF" points="60.612,142.343 60.612,121.413 76.044,121.413 76.044,125.47 65.844,125.47 
		65.844,129.299 75.362,129.299 75.362,133.357 65.844,133.357 65.844,138.285 76.917,138.285 76.917,142.343 60.612,142.343 	"/>
	<polyline id="XMLID_4_" fill="#9CA3AF" points="86.472,131.081 79.571,121.413 85.903,121.413 89.733,127.783 93.525,121.413 
		99.781,121.413 92.918,131.081 100.919,142.343 94.511,142.343 89.695,134.532 84.728,142.343 78.396,142.343 86.472,131.081 	"/>
	<path id="XMLID_7_" fill="#9CA3AF" d="M102.549,142.343h5.309v-6.786h4.096c7.166,0,8.721-4.285,8.721-7.091
		c0-4.172-2.085-7.091-7.735-7.091h-10.39V142.343z M107.782,125.28h4.247c2.389,0,3.374,1.137,3.374,3.224
		c0,1.63-0.833,3.185-3.223,3.185h-4.398V125.28z"/>
	<path id="XMLID_10_" fill="#9CA3AF" d="M122.077,142.343h5.232v-7.546h3.338l4.133,7.546h5.84l-4.815-8.417
		c2.616-0.759,4.321-2.958,4.321-5.649c0-4.702-2.881-6.902-7.583-6.902h-10.466V142.343L122.077,142.343z M127.31,125.28h4.778
		c1.669,0.038,2.807,0.872,2.807,2.844c0,1.933-1.101,2.807-2.807,2.807h-4.778V125.28z"/>
	<polyline id="XMLID_11_" fill="#9CA3AF" points="142.212,142.343 142.212,121.413 157.606,121.413 157.606,125.47 147.444,125.47 
		147.444,129.299 156.962,129.299 156.962,133.357 147.444,133.357 147.444,138.285 158.517,138.285 158.517,142.343 
		142.212,142.343 	"/>
	<path id="XMLID_25_" fill="#9CA3AF" d="M163.825,136.087c1.82,1.631,3.564,2.616,6.068,2.616c1.363,0,3.906-0.567,3.906-2.426
		c0-1.063-0.799-1.593-2.354-1.858l-4.359-0.722c-3.869-0.605-5.992-2.691-5.992-5.763c0-5.081,4.096-7.167,8.57-7.167
		c3.488,0,6.9,1.403,9.252,4.02l-3.982,2.844c-1.363-1.668-3.412-2.654-5.611-2.654c-1.213,0-2.955,0.758-2.955,2.124
		c0,1.1,0.908,1.668,2.918,2.009l2.01,0.304c4.17,0.683,7.621,1.973,7.621,5.992c0,6.293-5.688,7.469-9.594,7.469
		c-3.564,0-6.598-1.137-9.441-4.284L163.825,136.087"/>
	<path id="XMLID_26_" fill="#9CA3AF" d="M183.96,136.087c1.82,1.631,3.564,2.616,6.068,2.616c1.402,0,3.904-0.567,3.904-2.426
		c0-1.063-0.797-1.593-2.352-1.858l-4.361-0.722c-3.867-0.605-5.988-2.691-5.988-5.763c0-5.081,4.094-7.167,8.568-7.167
		c3.451,0,6.863,1.403,9.213,4.02l-3.98,2.919c-1.365-1.668-3.414-2.654-5.613-2.654c-1.211,0-2.957,0.758-2.957,2.124
		c0,1.1,0.912,1.668,2.92,2.009l2.01,0.304c4.172,0.682,7.621,1.972,7.621,5.99c0,6.295-5.688,7.471-9.594,7.471
		c-3.563,0-6.596-1.138-9.439-4.285L183.96,136.087"/>
</g>
</svg>
