<?xml version="1.0" encoding="utf-8"?>
<!-- Generator: Adobe Illustrator 16.0.0, SVG Export Plug-In . SVG Version: 6.00 Build 0)  -->
<!DOCTYPE svg PUBLIC "-//W3C//DTD SVG 1.1//EN" "http://www.w3.org/Graphics/SVG/1.1/DTD/svg11.dtd">
<svg version="1.1" id="Layer_1" xmlns="http://www.w3.org/2000/svg" xmlns:xlink="http://www.w3.org/1999/xlink" x="0px" y="0px"
	 width="747.457px" height="193.57px" viewBox="25.125 407.442 747.457 193.57"
	 enable-background="new 25.125 407.442 747.457 193.57" xml:space="preserve">
<title>mysql</title>
<path fill="#9CA3AF" d="M650.473,567.562c-0.969-0.061-2.094-0.102-3.23-0.102c-5.726,0-11.202,0.915-16.241,2.582l0.308-0.091
	c-1.479,0.508-3.845,0.508-4.047,2.124c0.817,0.671,0.936,1.779,1.622,2.715c1.384,2.012,3.086,3.721,5.074,5.143l0.035,0.031
	c2.069,1.393,4.141,2.745,6.317,3.934c3.845,2.033,8.211,3.243,11.973,5.287c2.141,1.188,4.329,2.702,6.506,3.974
	c1.077,0.631,1.774,1.779,3.16,2.186v-0.255c-0.676-0.761-0.889-1.87-1.551-2.714c-0.994-0.853-1.977-1.615-2.958-2.449
	c-2.935-3.304-6.329-6.13-10.139-8.487l-0.142-0.082c-3.158-1.851-10.08-4.441-11.381-7.563l-0.189-0.183
	c2.58-0.314,4.874-0.783,7.086-1.413l-0.284,0.071c3.36-0.762,6.437-0.601,9.903-1.341c1.562-0.346,3.147-0.763,4.731-1.19v-0.763
	c-1.775-1.523-3.099-3.598-4.933-5.021c-4.839-3.658-10.175-7.096-15.794-10.185l-0.531-0.274c-3.1-1.698-7.04-2.796-10.305-4.239
	c-1.184-0.509-3.159-0.763-3.845-1.617c-1.537-1.88-2.898-4.035-3.975-6.313l-0.095-0.223c-2.903-4.84-5.601-9.763-8.093-14.771
	c-1.703-3.893-3.395-7.085-5.3-10.175l0.272,0.479c-9.298-13.408-22.251-24.184-37.715-31.533l-0.508-0.224
	c-3.656-1.556-7.902-2.765-12.361-3.446l-0.298-0.041c-2.473-0.101-4.932-0.253-7.393-0.345c-1.729-0.955-3.219-1.931-4.614-3.01
	l0.035,0.031c-5.62-3.05-20.158-9.657-24.298-0.914c-2.663,5.508,3.951,10.947,6.233,13.743c1.822,1.859,3.479,3.943,4.91,6.15
	l0.118,0.203c0.697,1.474,0.887,2.987,1.584,4.522c1.716,4.595,3.455,8.365,5.431,12.016l-0.308-0.63
	c1.172,2.022,2.391,3.74,3.75,5.366l-0.095-0.122c0.793,0.926,2.153,1.362,2.474,2.888c-1.019,1.84-1.811,3.975-2.249,6.201
	l-0.023,0.142c-1.277,3.375-2.022,7.27-2.022,11.305c0,6.312,1.81,12.258,5.004,17.484l-0.118-0.203
	c1.585,2.104,5.348,6.779,10.387,4.99c4.436-1.525,3.454-6.354,4.732-10.602c0.295-1.017,0.106-1.688,0.71-2.38v0.194
	c1.384,2.388,2.778,4.666,4.046,7.054c3.572,4.423,7.819,8.184,12.67,11.283l0.153,0.092c2.366,1.524,4.248,4.168,7.205,5.104
	v-0.255h-0.226c-0.673-0.631-1.418-1.188-2.235-1.668l-0.048-0.02c-1.834-1.545-3.536-3.213-5.074-4.971l-0.096-0.111
	c-3.856-4.473-7.523-9.535-10.705-14.852l-0.344-0.62c-1.621-2.664-2.981-5.539-4.282-8.173c-0.592-1.017-0.592-2.541-1.585-3.05
	c-1.751,1.688-3.325,3.567-4.637,5.59l-0.096,0.164c-1.515,3.791-2.508,8.173-2.769,12.717v0.111c-0.401,0.093-0.202,0-0.401,0.184
	c-3.158-0.662-4.247-3.477-5.431-5.845c-1.609-3.722-2.543-8.031-2.543-12.515c0-3.618,0.603-7.115,1.739-10.419l-0.071,0.265
	c0.697-1.779,3.655-7.391,2.473-9.098c-0.616-1.617-2.568-2.542-3.656-3.853c-1.289-1.566-2.472-3.345-3.454-5.226l-0.095-0.203
	c-2.366-4.747-3.549-10.014-6.116-14.76c-1.551-2.48-3.182-4.615-5.016-6.607l0.083,0.092c-1.952-1.942-3.751-4.107-5.313-6.404
	l-0.13-0.203c-0.485-0.926-1.183-2.46-0.402-3.477c0.142-0.591,0.687-1.047,1.385-1.139h0.012c1.301-0.916,4.957,0.274,6.233,0.782
	c3.751,1.22,6.98,2.653,9.974,4.34l-0.189-0.101c1.384,0.833,2.887,2.449,4.661,2.867h2.07c3.158,0.6,6.731,0.183,9.689,0.924
	c5.429,1.577,10.126,3.548,14.468,5.968l-0.249-0.132c13.061,7.247,23.518,17.047,30.593,28.625l0.237,0.417
	c1.183,1.951,1.704,3.75,2.78,5.784c2.07,4.188,4.625,8.427,6.731,12.472c1.999,4.351,4.364,8.112,7.181,11.579l-0.143-0.184
	c1.479,1.778,7.418,2.704,10.08,3.629c2.803,0.845,5.051,1.646,7.227,2.552l-0.437-0.162c3.396,1.778,6.707,3.812,9.901,5.762
	c1.621,0.967,6.555,3.092,6.85,4.8L650.473,567.562z M346.88,552.629c0,0.194,0.016,0.413,0.016,0.635
	c0,7.237-3.76,13.712-9.708,18.07l-0.045,0.025c-6.522,4.566-14.93,7.342-24.094,7.342c-0.709,0-1.419-0.013-2.113-0.051h0.09
	c-11.156-0.131-21.421-3.243-29.83-8.444l0.151,0.09l4.468-7.719c6.477,3.113,14.176,5.046,22.358,5.318h0.09
	c0.409,0.027,0.876,0.039,1.359,0.039c5.012,0,9.677-1.349,13.497-3.645l-0.075,0.038c3.457-2.257,5.661-5.784,5.661-9.754
	c0-0.078,0-0.143,0-0.221v0.014c0-5.345-4.333-9.886-12.228-13.698c-7.322-3.452-21.935-10.65-21.935-10.65
	c-7.216-3.84-11.941-10.599-11.941-18.303c0-0.273,0-0.545,0.015-0.817v0.038c-0.015-0.247-0.015-0.532-0.015-0.817
	c0-6.68,3.427-12.673,8.847-16.746l0.03-0.026c5.767-4.202,13.3-6.758,21.527-6.758c0.529,0,1.042,0.013,1.556,0.025h-0.076
	c0.135,0,0.302,0,0.468,0c9.647,0,18.629,2.478,26.117,6.745l-0.181-0.09l-4.016,7.718c-5.902-2.283-12.787-3.659-20.033-3.723
	h-0.03c-0.362-0.026-0.77-0.038-1.192-0.038c-4.227,0-8.122,1.271-11.171,3.397l0.03-0.025c-2.854,2.036-4.665,5.084-4.68,8.496l0,0
	c0,5.318,4.408,9.884,12.56,13.776c7.413,3.488,22.389,10.857,22.389,10.857c7.367,3.723,12.243,10.494,12.243,18.252
	c0,0.232,0,0.479-0.015,0.712v-0.038L346.88,552.629z M378.16,559.517c-4.122-7.07-6.522-15.397-6.522-24.207
	c0-1.387,0.062-2.761,0.181-4.111l-0.015,0.182c0-22.58,7.987-33.873,23.958-33.883c0.393-0.025,0.861-0.038,1.344-0.038
	c7.171,0,13.466,3.217,17.045,8.068l0.045,0.064c4.091,7.031,6.491,15.333,6.491,24.102c0,1.35-0.06,2.687-0.167,4.009l0.017-0.182
	c0,22.762-7.987,34.15-23.959,34.169c-0.407,0.025-0.875,0.038-1.343,0.038c-7.171,0-13.481-3.217-17.06-8.068l-0.045-0.064
	L378.16,559.517z M440.267,579.648l-19.172-8.107c1.749-1.259,3.32-2.581,4.77-4.008l0.045-0.039
	c7.745-8.977,12.395-20.275,12.395-32.495c0-1.414-0.061-2.814-0.181-4.203l0.016,0.183c0-29.662-13.553-44.502-40.656-44.52
	c-0.604-0.025-1.313-0.04-2.022-0.04c-11.579,0-21.98,4.372-29.061,11.313l-0.03,0.038c-7.714,8.978-12.349,20.263-12.349,32.481
	c0,1.376,0.061,2.738,0.181,4.086l-0.015-0.18c-0.136,1.309-0.211,2.839-0.211,4.384c0,11.337,4.136,21.845,11.171,30.471
	l-0.136-0.169c6.778,6.2,16.395,10.066,27.038,10.066c0.996,0,1.978-0.039,2.943-0.104l-0.137,0.013c0.137,0,0.318,0,0.484,0
	c4.695,0,9.238-0.584,13.541-1.66l-0.332,0.078l25,12.517l6.794-10.079L440.267,579.648z M502.886,577.456h-49.621V487.82h16.696
	v78.623h32.925V577.456z M270.387,511.326c-4.333,27.033-14.251,51.434-28.758,73.291l0.604-0.999
	c-5.812,9.611-16.803,16.306-29.709,17.382l-0.151,0.013c-3.91-0.182-7.548-0.986-10.854-2.295l0.181,0.063v-8.003
	c2.068,0.272,4.454,0.429,6.884,0.429c0.136,0,0.272,0,0.423,0h-0.015c0.242,0.012,0.513,0.012,0.785,0.012
	c4.363,0,8.364-1.361,11.443-3.632l-0.03,0.013c3.321-2.348,5.45-5.85,5.571-9.793v-0.013c-0.8-5.683-2.325-10.858-4.514-15.749
	l0.181,0.441l-19.127-51.16h17.165l13.722,38.253c2.446,5.396,3.865,11.649,3.865,18.174c0,0.013,0,0.026,0,0.026l0,0
	c7.276-16.371,12.802-35.465,15.61-55.273l0.136-1.192L270.387,511.326z M194.603,577.456h-17.482
	c-0.493-23.878-2.189-47.706-5.087-71.488h-0.151l-26.6,71.488h-13.3l-26.419-71.488h-0.181c-2.063,23.79-3.291,47.621-3.684,71.488
	H85.758c1.037-31.868,3.613-61.75,7.729-89.648h21.693l25.181,65.884h0.15l25.408-65.884h20.652
	c4.568,32.663,7.261,62.546,8.076,89.648H194.603z M549.667,493.763c-0.022,0-0.058,0-0.095,0c-1.406,0-2.767,0.152-4.068,0.437
	l0.118-0.02v0.163h0.202c1.017,1.3,2.058,2.429,3.182,3.486l-0.023-0.021c0.792,1.361,1.479,2.713,2.271,4.064l0.2-0.191
	c1.29-0.875,2.106-2.217,2.106-3.722c0-0.183-0.013-0.354-0.036-0.537v0.02c-0.591-0.6-0.674-1.189-1.183-1.778
	c-0.591-0.854-1.857-1.271-2.661-1.942L549.667,493.763z"/>
</svg>
