<?xml version="1.0" encoding="utf-8"?>
<!-- Generator: Adobe Illustrator 16.0.0, SVG Export Plug-In . SVG Version: 6.00 Build 0)  -->
<!DOCTYPE svg PUBLIC "-//W3C//DTD SVG 1.1//EN" "http://www.w3.org/Graphics/SVG/1.1/DTD/svg11.dtd">
<svg version="1.1" id="Layer_1" xmlns="http://www.w3.org/2000/svg" xmlns:xlink="http://www.w3.org/1999/xlink" x="0px" y="0px"
	 width="799.521px" height="99.125px" viewBox="0 0 799.521 99.125" enable-background="new 0 0 799.521 99.125"
	 xml:space="preserve">
<g>
	<path fill="#9CA3AF" d="M124.61,6.564c-19.11,0-31.054,9.555-35.831,28.666c7.166-9.556,15.526-13.138,25.081-10.75
		c5.452,1.364,9.35,5.319,13.662,9.697c7.026,7.132,15.158,15.386,32.92,15.386c19.11,0,31.054-9.557,35.832-28.667
		c-7.166,9.556-15.527,13.139-25.082,10.751c-5.451-1.363-9.349-5.318-13.662-9.697C150.504,14.82,142.372,6.564,124.61,6.564z
		 M88.779,49.563c-19.111,0-31.054,9.557-35.832,28.667c7.166-9.557,15.527-13.14,25.083-10.751
		c5.452,1.363,9.348,5.318,13.661,9.696c7.026,7.132,15.158,15.386,32.919,15.386c19.111,0,31.054-9.556,35.832-28.666
		c-7.167,9.557-15.527,13.141-25.083,10.751c-5.452-1.364-9.347-5.317-13.661-9.696C114.672,57.816,106.54,49.563,88.779,49.563z"/>
	<path fill="#9CA3AF" d="M267.926,42.8H255.42v24.206c0,6.455,4.236,6.354,12.506,5.95v9.783
		c-16.742,2.017-23.399-2.622-23.399-15.734V42.8h-9.28V32.31h9.28V18.763l10.893-3.228V32.31h12.506V42.8z M315.601,32.31h10.893
		v50.43h-10.893v-7.263c-3.832,5.347-9.783,8.574-17.65,8.574c-13.717,0-25.114-11.6-25.114-26.525
		c0-15.028,11.397-26.526,25.114-26.526c7.867,0,13.817,3.227,17.65,8.473V32.31z M299.665,73.662
		c9.077,0,15.936-6.758,15.936-16.137c0-9.379-6.858-16.137-15.936-16.137c-9.077,0-15.936,6.758-15.936,16.137
		C283.729,66.904,290.587,73.662,299.665,73.662z M344.648,24.746c-3.833,0-6.959-3.229-6.959-6.958
		c0-3.833,3.127-6.958,6.959-6.958s6.958,3.126,6.958,6.958C351.607,21.517,348.481,24.746,344.648,24.746z M339.202,82.739V32.31
		h10.894v50.43H339.202z M362.703,82.739V9.113h10.893v73.626H362.703z M444.298,32.31h11.498l-15.836,50.43h-10.688l-10.49-33.989
		L408.19,82.739h-10.689l-15.836-50.43h11.498l9.781,34.798l10.591-34.798h10.39l10.49,34.798L444.298,32.31z M469.312,24.746
		c-3.834,0-6.958-3.229-6.958-6.958c0-3.833,3.124-6.958,6.958-6.958c3.831,0,6.958,3.126,6.958,6.958
		C476.27,21.517,473.143,24.746,469.312,24.746z M463.863,82.739V32.31h10.894v50.43H463.863z M513.891,30.999
		c11.296,0,19.364,7.665,19.364,20.777v30.963h-10.894V52.886c0-7.666-4.438-11.7-11.296-11.7c-7.162,0-12.811,4.236-12.811,14.522
		v27.031h-10.892v-50.43h10.894v6.455C501.585,33.52,507.033,30.999,513.891,30.999z M584.896,12.138h10.894v70.601h-10.894v-7.263
		c-3.833,5.347-9.783,8.574-17.65,8.574c-13.718,0-25.114-11.6-25.114-26.525c0-15.028,11.398-26.526,25.114-26.526
		c7.865,0,13.817,3.227,17.65,8.473V12.138L584.896,12.138z M568.959,73.662c9.079,0,15.937-6.758,15.937-16.137
		c0-9.379-6.857-16.137-15.937-16.137c-9.076,0-15.935,6.758-15.935,16.137C553.024,66.904,559.883,73.662,568.959,73.662z
		 M632.3,84.051c-15.23,0-26.625-11.6-26.625-26.526c0-15.028,11.396-26.526,26.625-26.526c9.886,0,18.458,5.144,22.493,13.011
		l-9.381,5.447c-2.219-4.741-7.162-7.768-13.213-7.768c-8.875,0-15.634,6.758-15.634,15.834c0,9.078,6.757,15.836,15.634,15.836
		c6.053,0,10.995-3.127,13.417-7.767l9.379,5.346C650.758,78.907,642.184,84.051,632.3,84.051z M672.947,46.229
		c0,9.178,27.129,3.632,27.129,22.289c0,10.087-8.774,15.532-19.668,15.532c-10.087,0-17.347-4.537-20.575-11.801l9.381-5.444
		c1.612,4.536,5.648,7.262,11.194,7.262c4.841,0,8.572-1.614,8.572-5.65c0-8.976-27.129-3.932-27.129-21.986
		c0-9.481,8.17-15.432,18.456-15.432c8.271,0,15.128,3.832,18.661,10.489l-9.18,5.145c-1.816-3.933-5.346-5.75-9.481-5.75
		C676.376,40.884,672.947,42.599,672.947,46.229z M719.441,46.229c0,9.178,27.133,3.632,27.133,22.289
		c0,10.087-8.776,15.532-19.67,15.532c-10.086,0-17.347-4.537-20.575-11.801l9.381-5.444c1.611,4.536,5.648,7.262,11.194,7.262
		c4.841,0,8.574-1.614,8.574-5.65c0-8.976-27.133-3.932-27.133-21.986c0-9.481,8.172-15.432,18.458-15.432
		c8.271,0,15.128,3.832,18.659,10.489l-9.178,5.145c-1.816-3.933-5.346-5.75-9.481-5.75
		C722.872,40.884,719.441,42.599,719.441,46.229z"/>
</g>
</svg>
