<?xml version="1.0" encoding="utf-8"?>
<!-- Generator: Adobe Illustrator 16.0.0, SVG Export Plug-In . SVG Version: 6.00 Build 0)  -->
<!DOCTYPE svg PUBLIC "-//W3C//DTD SVG 1.1//EN" "http://www.w3.org/Graphics/SVG/1.1/DTD/svg11.dtd">
<svg version="1.1" id="Layer_1" xmlns="http://www.w3.org/2000/svg" xmlns:xlink="http://www.w3.org/1999/xlink" x="0px" y="0px"
	 width="798.646px" height="225.527px" viewBox="1.339 103.817 798.646 225.527"
	 enable-background="new 1.339 103.817 798.646 225.527" xml:space="preserve">
<g>
	<path fill="#9CA3AF" d="M675.699,189.219c-1.626,0-3.207,0.336-4.606,1.128l-44.278,25.57c-2.866,1.652-4.606,4.769-4.606,8.087
		v51.047c0,3.315,1.74,6.429,4.606,8.084l11.563,6.675c5.619,2.769,7.689,2.726,10.247,2.726c8.318,0,13.067-5.047,13.067-13.818
		v-50.391c0-0.712-0.616-1.222-1.315-1.222h-5.547c-0.711,0-1.315,0.51-1.315,1.222v50.391c0,3.887-4.05,7.797-10.623,4.512
		l-12.033-7.051c-0.427-0.231-0.753-0.64-0.753-1.128v-51.049c0-0.484,0.322-0.976,0.753-1.222l44.184-25.475
		c0.407-0.237,0.91-0.237,1.316,0l44.187,25.477c0.42,0.253,0.752,0.722,0.752,1.223v51.048c0,0.488-0.246,0.987-0.658,1.222
		l-44.28,25.476c-0.38,0.226-0.902,0.226-1.316,0l-11.374-6.769c-0.353-0.19-0.777-0.19-1.129,0c-3.139,1.78-3.73,1.986-6.676,3.008
		c-0.726,0.253-1.825,0.647,0.376,1.881l14.854,8.741c1.4,0.808,2.99,1.23,4.607,1.223c1.616,0.01,3.207-0.412,4.605-1.222
		l44.279-25.478c2.866-1.666,4.606-4.77,4.606-8.084v-51.049c0-3.316-1.74-6.429-4.606-8.084l-44.279-25.57
		c-1.388-0.792-2.979-1.129-4.605-1.129L675.699,189.219z"/>
	<path fill="#9CA3AF" d="M687.545,225.696c-12.609,0-20.118,5.366-20.118,14.291c0,9.68,7.453,12.339,19.554,13.536
		c14.478,1.417,15.606,3.543,15.606,6.394c0,4.943-3.942,7.05-13.256,7.05c-11.702,0-14.274-2.921-15.136-8.743
		c-0.102-0.625-0.583-1.129-1.223-1.129h-5.734c-0.705,0-1.315,0.609-1.315,1.317c0,7.452,4.053,16.264,23.408,16.264
		c14.011,0,22.093-5.5,22.093-15.136c0-9.551-6.527-12.116-20.119-13.913c-13.732-1.817-15.042-2.707-15.042-5.922
		c0-2.655,1.11-6.207,11.282-6.207c9.086,0,12.443,1.96,13.819,8.087c0.12,0.575,0.627,1.033,1.223,1.033h5.735
		c0.353,0,0.695-0.217,0.939-0.471c0.24-0.27,0.41-0.575,0.376-0.939C708.749,230.658,701.715,225.696,687.545,225.696
		L687.545,225.696z"/>
</g>
<path fill="#9CA3AF" d="M415.385,122.285c-0.496,0-0.982,0.129-1.412,0.375c-0.869,0.509-1.405,1.438-1.41,2.445v71.919
	c0,0.706-0.327,1.337-0.939,1.692c-0.609,0.355-1.363,0.355-1.975,0l-11.751-6.769c-1.745-1.009-3.896-1.009-5.641,0l-46.912,27.075
	c-1.753,1.012-2.819,2.958-2.819,4.983v54.149c0,2.023,1.067,3.875,2.819,4.888l46.912,27.076c1.744,1.012,3.896,1.012,5.641,0
	l46.911-27.076c1.748-1.006,2.824-2.871,2.821-4.888V143.155c-0.003-2.065-1.116-3.969-2.914-4.983l-27.923-15.606
	C416.355,122.321,415.87,122.278,415.385,122.285L415.385,122.285z M113.609,189.878c-0.894,0.035-1.735,0.192-2.538,0.657
	l-46.913,27.075c-1.75,1.005-2.825,2.871-2.82,4.888l0.094,72.672c0,1.01,0.521,1.949,1.41,2.443c0.868,0.521,1.953,0.521,2.82,0
	l27.827-15.981c1.763-1.048,2.914-2.869,2.914-4.89v-33.938c0-2.025,1.065-3.883,2.821-4.889l11.844-6.862
	c0.856-0.498,1.831-0.758,2.821-0.752c0.967,0,1.96,0.241,2.82,0.752l11.846,6.862c1.751,1.004,2.829,2.871,2.821,4.889v33.937
	c0,2.02,1.163,3.854,2.914,4.89l27.827,15.982c0.868,0.521,1.953,0.521,2.821,0c0.873-0.505,1.41-1.437,1.411-2.444l0.091-72.671
	c0.011-2.019-1.066-3.888-2.819-4.888l-46.912-27.075c-0.792-0.465-1.637-0.621-2.537-0.657H113.609z M535.153,190.536
	c-0.98,0-1.941,0.248-2.82,0.752l-46.912,27.076c-1.748,1.005-2.824,2.871-2.82,4.888v54.15c0,2.037,1.147,3.882,2.914,4.889
	l46.536,26.511c1.719,0.98,3.816,1.055,5.548,0.091l28.202-15.699c0.896-0.497,1.499-1.424,1.504-2.443
	c0.01-1.011-0.529-1.947-1.409-2.445l-47.194-27.075c-0.883-0.504-1.504-1.525-1.504-2.539v-16.921c0-1.012,0.628-1.94,1.504-2.444
	l14.665-8.461c0.873-0.505,1.949-0.505,2.822,0l14.663,8.461c0.875,0.502,1.413,1.435,1.411,2.443v13.35
	c-0.003,1.008,0.536,1.941,1.409,2.443c0.88,0.508,1.944,0.509,2.821,0l28.11-16.354c1.744-1.01,2.819-2.873,2.82-4.889v-13.066
	c0-2.019-1.071-3.875-2.82-4.889l-46.63-27.076C537.117,190.792,536.143,190.533,535.153,190.536L535.153,190.536z M394.888,230.96
	c0.246,0,0.533,0.06,0.753,0.187l16.076,9.307c0.437,0.252,0.754,0.718,0.754,1.222v18.614c0,0.505-0.314,0.971-0.754,1.223
	l-16.076,9.307c-0.437,0.249-0.974,0.249-1.41,0l-16.076-9.307c-0.438-0.253-0.752-0.718-0.752-1.223v-18.614
	c0-0.505,0.316-0.967,0.752-1.222l16.076-9.306c0.197-0.123,0.426-0.188,0.659-0.187v-0.001H394.888z"/>
<path fill="#9CA3AF" d="M254.531,190.253c-0.978,0-1.944,0.248-2.82,0.753L204.8,217.987c-1.755,1.01-2.821,2.959-2.821,4.982v54.15
	c0,2.025,1.067,3.875,2.821,4.889l46.911,27.074c1.744,1.013,3.897,1.013,5.641,0l46.911-27.074c1.748-1.006,2.824-2.872,2.82-4.889
	v-54.15c0-2.025-1.066-3.972-2.82-4.982l-46.911-26.981C256.495,190.51,255.521,190.251,254.531,190.253z M535.059,238.576
	c-0.187,0-0.394,0-0.563,0.094l-9.025,5.265c-0.343,0.19-0.558,0.549-0.563,0.94v10.34c0,0.39,0.224,0.746,0.563,0.941l9.025,5.17
	c0.339,0.196,0.698,0.196,1.033,0l9.024-5.171c0.342-0.191,0.556-0.549,0.564-0.94v-10.342c-0.009-0.391-0.223-0.748-0.564-0.939
	l-9.024-5.266C535.361,238.57,535.247,238.577,535.059,238.576L535.059,238.576z"/>
</svg>
